<svg width="56" height="57" viewBox="0 0 56 57" fill="none" xmlns="http://www.w3.org/2000/svg">
<path d="M24.6002 5.08356C25.0378 4.64613 25.6312 4.40039 26.2499 4.40039C26.8686 4.40039 27.462 4.64613 27.8996 5.08356L33.7329 10.9169C34.1703 11.3545 34.4161 11.9478 34.4161 12.5666C34.4161 13.1853 34.1703 13.7787 33.7329 14.2162L27.8996 20.0496C27.6843 20.2724 27.4269 20.4502 27.1422 20.5725C26.8575 20.6947 26.5513 20.7591 26.2415 20.7618C25.9317 20.7645 25.6244 20.7055 25.3377 20.5881C25.0509 20.4708 24.7904 20.2976 24.5713 20.0785C24.3522 19.8594 24.179 19.5989 24.0617 19.3121C23.9443 19.0254 23.8853 18.7181 23.888 18.4083C23.8907 18.0985 23.9551 17.7923 24.0773 17.5076C24.1996 17.2229 24.3774 16.9655 24.6002 16.7502L26.3689 14.9792C23.3108 15.2867 20.4015 16.4507 17.9753 18.3376C15.5492 20.2245 13.7047 22.7576 12.6538 25.6459C11.6028 28.5342 11.3882 31.6604 12.0345 34.6652C12.6808 37.67 14.1618 40.4314 16.3073 42.6322C18.4528 44.833 21.1757 46.3838 24.1631 47.1063C27.1505 47.8288 30.2811 47.6937 33.1952 46.7166C36.1092 45.7395 38.6885 43.96 40.6365 41.5827C42.5845 39.2053 43.8221 36.3265 44.2072 33.2772C44.2385 32.9677 44.3313 32.6676 44.4803 32.3945C44.6292 32.1214 44.8313 31.8809 45.0745 31.687C45.3178 31.4932 45.5974 31.3499 45.8968 31.2656C46.1962 31.1814 46.5095 31.1579 46.8182 31.1965C47.1268 31.235 47.4247 31.3349 47.6942 31.4903C47.9636 31.6457 48.1993 31.8534 48.3874 32.1011C48.5755 32.3489 48.7121 32.6318 48.7892 32.9331C48.8663 33.2345 48.8825 33.5482 48.8366 33.8559C48.3398 37.8025 46.7324 41.5268 44.2015 44.5954C41.6705 47.664 38.32 49.9507 34.5401 51.1893C30.7602 52.4279 26.7062 52.5675 22.85 51.5918C18.9938 50.6161 15.494 48.5653 12.758 45.6781C10.0219 42.7908 8.16215 39.1859 7.39512 35.2828C6.62809 31.3798 6.98534 27.3391 8.42529 23.6312C9.86524 19.9233 12.3287 16.7006 15.5288 14.3382C18.729 11.9758 22.5344 10.5708 26.5019 10.2869L24.6002 8.38289C24.1628 7.94533 23.9171 7.35194 23.9171 6.73323C23.9171 6.11451 24.1628 5.52112 24.6002 5.08356ZM37.8162 23.7502C38.2537 24.1878 38.4994 24.7812 38.4994 25.3999C38.4994 26.0186 38.2537 26.612 37.8162 27.0496L27.3162 37.5496C26.8787 37.987 26.2853 38.2327 25.6666 38.2327C25.0479 38.2327 24.4545 37.987 24.0169 37.5496L19.3502 32.8829C19.1274 32.6676 18.9496 32.4102 18.8273 32.1255C18.7051 31.8408 18.6407 31.5346 18.638 31.2248C18.6353 30.915 18.6943 30.6078 18.8117 30.321C18.929 30.0342 19.1022 29.7737 19.3213 29.5546C19.5404 29.3356 19.8009 29.1623 20.0877 29.045C20.3744 28.9277 20.6817 28.8686 20.9915 28.8713C21.3013 28.874 21.6075 28.9384 21.8922 29.0607C22.1769 29.1829 22.4343 29.3607 22.6496 29.5836L25.6666 32.6006L34.5169 23.7502C34.9545 23.3128 35.5479 23.0671 36.1666 23.0671C36.7853 23.0671 37.3787 23.3128 37.8162 23.7502Z" fill="#EF8C02"/>
</svg>
