<svg width="72" height="72" viewBox="0 0 72 72" fill="none" xmlns="http://www.w3.org/2000/svg">
<path opacity="0.3" d="M55.95 58.05L49.5 51.6V42H52.5V50.37L58.05 55.92L55.95 58.05ZM51 30C52.02 30 53.01 30.09 54 30.24V15H48V24H24V15H18V60H32.04C30.5179 56.8006 29.8307 53.2678 30.0424 49.7311C30.2541 46.1944 31.3579 42.7688 33.2507 39.7738C35.1436 36.7788 37.764 34.3118 40.8676 32.6027C43.9712 30.8937 47.457 29.9983 51 30ZM36 15C34.35 15 33 13.65 33 12C33 10.35 34.35 9 36 9C37.65 9 39 10.35 39 12C39 13.65 37.65 15 36 15Z" fill="#EF8C02"/>
<path d="M51 36C42.72 36 36 42.72 36 51C36 59.28 42.72 66 51 66C59.28 66 66 59.28 66 51C66 42.72 59.28 36 51 36ZM55.95 58.05L49.5 51.6V42H52.5V50.37L58.05 55.92L55.95 58.05ZM54 9H44.46C43.2 5.52 39.9 3 36 3C32.1 3 28.8 5.52 27.54 9H18C14.7 9 12 11.7 12 15V60C12 63.3 14.7 66 18 66H36.33C34.5529 64.2792 33.1087 62.2451 32.07 60H18V15H24V24H48V15H54V30.24C56.13 30.54 58.14 31.17 60 32.04V15C60 11.7 57.3 9 54 9ZM36 15C34.35 15 33 13.65 33 12C33 10.35 34.35 9 36 9C37.65 9 39 10.35 39 12C39 13.65 37.65 15 36 15Z" fill="#EF8C02"/>
</svg>
