<svg width="459" height="44" viewBox="0 0 459 44" fill="none" xmlns="http://www.w3.org/2000/svg">
<g filter="url(#filter0_d_3530_1146)">
<path d="M25.0234 15.1328C25.0234 17.4245 24.8411 19.4753 24.4766 21.2852C24.112 23.082 23.526 24.612 22.7188 25.875C21.9245 27.138 20.8698 28.1016 19.5547 28.7656C18.2396 29.4297 16.625 29.7617 14.7109 29.7617C12.3281 29.7617 10.375 29.1823 8.85156 28.0234C7.32812 26.8516 6.20182 25.1784 5.47266 23.0039C4.75651 20.8164 4.39844 18.1927 4.39844 15.1328C4.39844 12.0469 4.72396 9.41016 5.375 7.22266C6.03906 5.02214 7.1263 3.33594 8.63672 2.16406C10.1471 0.992188 12.1719 0.40625 14.7109 0.40625C17.0938 0.40625 19.0404 0.992188 20.5508 2.16406C22.0742 3.32292 23.2005 5.0026 23.9297 7.20312C24.6589 9.39062 25.0234 12.0339 25.0234 15.1328ZM12.0742 15.1328C12.0742 16.9948 12.1393 18.5573 12.2695 19.8203C12.4128 21.0833 12.6732 22.0339 13.0508 22.6719C13.4414 23.2969 13.9948 23.6094 14.7109 23.6094C15.4271 23.6094 15.974 23.2969 16.3516 22.6719C16.7292 22.0339 16.9896 21.0898 17.1328 19.8398C17.276 18.5768 17.3477 17.0078 17.3477 15.1328C17.3477 13.2448 17.276 11.6693 17.1328 10.4062C16.9896 9.14323 16.7292 8.19271 16.3516 7.55469C15.974 6.90365 15.4271 6.57812 14.7109 6.57812C13.9948 6.57812 13.4414 6.90365 13.0508 7.55469C12.6732 8.19271 12.4128 9.14323 12.2695 10.4062C12.1393 11.6693 12.0742 13.2448 12.0742 15.1328ZM34.4375 0.40625C36.6771 0.40625 38.474 1.1875 39.8281 2.75C41.1953 4.3125 41.8789 6.50651 41.8789 9.33203C41.8789 12.1576 41.2409 14.3646 39.9648 15.9531C38.6888 17.5417 36.8464 18.3359 34.4375 18.3359C32.25 18.3359 30.4857 17.5417 29.1445 15.9531C27.8164 14.3646 27.1523 12.1576 27.1523 9.33203C27.1523 6.50651 27.7773 4.3125 29.0273 2.75C30.2904 1.1875 32.0938 0.40625 34.4375 0.40625ZM34.5156 5.17188C33.9557 5.17188 33.5651 5.55599 33.3438 6.32422C33.1354 7.07943 33.0312 8.10807 33.0312 9.41016C33.0312 10.6862 33.1354 11.7148 33.3438 12.4961C33.5651 13.2643 33.9557 13.6484 34.5156 13.6484C35.0755 13.6484 35.4596 13.2708 35.668 12.5156C35.8763 11.7474 35.9805 10.7122 35.9805 9.41016C35.9805 8.10807 35.8763 7.07943 35.668 6.32422C35.4596 5.55599 35.0755 5.17188 34.5156 5.17188ZM56.1172 0.816406L40.2773 29.3711H34.4766L50.3164 0.816406H56.1172ZM56.1562 11.7734C58.3958 11.7734 60.1927 12.5547 61.5469 14.1172C62.9141 15.6797 63.5977 17.8737 63.5977 20.6992C63.5977 23.5117 62.9596 25.7122 61.6836 27.3008C60.4076 28.8893 58.5651 29.6836 56.1562 29.6836C53.9688 29.6836 52.2044 28.8893 50.8633 27.3008C49.5352 25.7122 48.8711 23.5117 48.8711 20.6992C48.8711 17.8737 49.4961 15.6797 50.7461 14.1172C52.0091 12.5547 53.8125 11.7734 56.1562 11.7734ZM56.2344 16.5391C55.6745 16.5391 55.2839 16.9232 55.0625 17.6914C54.8542 18.4466 54.75 19.4753 54.75 20.7773C54.75 22.0534 54.8542 23.082 55.0625 23.8633C55.2839 24.6315 55.6745 25.0156 56.2344 25.0156C56.7943 25.0156 57.1784 24.638 57.3867 23.8828C57.6081 23.1146 57.7188 22.0794 57.7188 20.7773C57.7188 19.4232 57.6081 18.3815 57.3867 17.6523C57.1784 16.9102 56.7943 16.5391 56.2344 16.5391Z" fill="#EF8C02"/>
<path d="M86.1318 10.8105C88.527 10.8105 90.2747 11.3268 91.375 12.3594C92.4753 13.3835 93.0254 14.7969 93.0254 16.5996C93.0254 17.4121 92.9027 18.1908 92.6572 18.9355C92.4118 19.6719 92.0098 20.3278 91.4512 20.9033C90.901 21.4788 90.1647 21.9359 89.2422 22.2744C88.3197 22.6045 87.1813 22.7695 85.8271 22.7695H84.1387V29.3711H80.2031V10.8105H86.1318ZM85.9287 14.0352H84.1387V19.5449H85.4336C86.1699 19.5449 86.8089 19.4476 87.3506 19.2529C87.8923 19.0583 88.3112 18.7536 88.6074 18.3389C88.9036 17.9242 89.0518 17.391 89.0518 16.7393C89.0518 15.8252 88.7979 15.1481 88.29 14.708C87.7822 14.2594 86.9951 14.0352 85.9287 14.0352ZM113.376 20.0654C113.376 21.4958 113.198 22.7992 112.843 23.9756C112.487 25.1436 111.946 26.1507 111.218 26.9971C110.498 27.8434 109.584 28.4951 108.476 28.9521C107.367 29.4007 106.055 29.625 104.54 29.625C103.025 29.625 101.713 29.4007 100.604 28.9521C99.4958 28.4951 98.5775 27.8434 97.8496 26.9971C97.1302 26.1507 96.5928 25.1393 96.2373 23.9629C95.8818 22.7865 95.7041 21.4788 95.7041 20.04C95.7041 18.1188 96.0173 16.4473 96.6436 15.0254C97.2783 13.5951 98.2516 12.4863 99.5635 11.6992C100.875 10.9121 102.543 10.5186 104.565 10.5186C106.58 10.5186 108.234 10.9121 109.529 11.6992C110.833 12.4863 111.798 13.5951 112.424 15.0254C113.059 16.4557 113.376 18.1357 113.376 20.0654ZM99.8301 20.0654C99.8301 21.3604 99.9909 22.4775 100.312 23.417C100.643 24.348 101.155 25.0674 101.849 25.5752C102.543 26.0745 103.44 26.3242 104.54 26.3242C105.657 26.3242 106.563 26.0745 107.257 25.5752C107.951 25.0674 108.454 24.348 108.768 23.417C109.089 22.4775 109.25 21.3604 109.25 20.0654C109.25 18.1188 108.886 16.5869 108.158 15.4697C107.43 14.3525 106.233 13.7939 104.565 13.7939C103.457 13.7939 102.551 14.0479 101.849 14.5557C101.155 15.055 100.643 15.7744 100.312 16.7139C99.9909 17.6449 99.8301 18.762 99.8301 20.0654ZM120.117 10.8105L119.597 17.5137H117.096L116.575 10.8105H120.117ZM133.752 25.1562C133.752 26.1211 133.523 26.9378 133.066 27.6064C132.618 28.2666 131.945 28.7702 131.048 29.1172C130.151 29.4557 129.034 29.625 127.696 29.625C126.706 29.625 125.855 29.5615 125.145 29.4346C124.442 29.3076 123.731 29.096 123.012 28.7998V25.6006C123.782 25.9476 124.607 26.2354 125.487 26.4639C126.376 26.6839 127.155 26.7939 127.823 26.7939C128.576 26.7939 129.114 26.6839 129.436 26.4639C129.766 26.2354 129.931 25.9391 129.931 25.5752C129.931 25.3382 129.863 25.1266 129.728 24.9404C129.601 24.7458 129.321 24.5299 128.89 24.293C128.458 24.0475 127.781 23.7301 126.858 23.3408C125.97 22.9684 125.238 22.5918 124.662 22.2109C124.095 21.8301 123.672 21.3815 123.393 20.8652C123.122 20.3405 122.986 19.6761 122.986 18.8721C122.986 17.5602 123.494 16.5742 124.51 15.9141C125.534 15.2454 126.901 14.9111 128.61 14.9111C129.491 14.9111 130.328 15 131.124 15.1777C131.928 15.3555 132.753 15.639 133.6 16.0283L132.432 18.8213C131.729 18.5166 131.065 18.2669 130.438 18.0723C129.821 17.8776 129.19 17.7803 128.547 17.7803C127.98 17.7803 127.552 17.8564 127.265 18.0088C126.977 18.1611 126.833 18.3939 126.833 18.707C126.833 18.9355 126.905 19.1387 127.049 19.3164C127.201 19.4941 127.489 19.693 127.912 19.9131C128.344 20.1247 128.974 20.3997 129.804 20.7383C130.608 21.0684 131.306 21.4154 131.898 21.7793C132.491 22.1348 132.948 22.5791 133.27 23.1123C133.591 23.637 133.752 24.3184 133.752 25.1562ZM143.832 10.8105H149.608C152.08 10.8105 153.95 11.1576 155.22 11.8516C156.489 12.5456 157.124 13.7643 157.124 15.5078C157.124 16.2103 157.01 16.8451 156.781 17.4121C156.561 17.9792 156.24 18.4447 155.816 18.8086C155.393 19.1725 154.877 19.4095 154.268 19.5195V19.6465C154.885 19.7734 155.444 19.9935 155.943 20.3066C156.443 20.6113 156.84 21.0599 157.137 21.6523C157.441 22.2363 157.594 23.015 157.594 23.9883C157.594 25.1139 157.319 26.0788 156.769 26.8828C156.218 27.6868 155.431 28.3047 154.407 28.7363C153.392 29.1595 152.181 29.3711 150.776 29.3711H143.832V10.8105ZM147.768 18.1611H150.053C151.195 18.1611 151.987 17.9834 152.427 17.6279C152.867 17.264 153.087 16.7308 153.087 16.0283C153.087 15.3174 152.825 14.8096 152.3 14.5049C151.784 14.1917 150.963 14.0352 149.837 14.0352H147.768V18.1611ZM147.768 21.2842V26.1211H150.332C151.517 26.1211 152.342 25.8926 152.808 25.4355C153.273 24.9785 153.506 24.3649 153.506 23.5947C153.506 23.1377 153.404 22.7357 153.201 22.3887C152.998 22.0417 152.655 21.7708 152.173 21.5762C151.699 21.3815 151.043 21.2842 150.205 21.2842H147.768ZM173.895 22.249C173.895 23.4339 173.734 24.4834 173.412 25.3975C173.099 26.3115 172.638 27.0859 172.028 27.7207C171.427 28.347 170.7 28.821 169.845 29.1426C168.998 29.4642 168.042 29.625 166.976 29.625C165.977 29.625 165.059 29.4642 164.221 29.1426C163.391 28.821 162.668 28.347 162.05 27.7207C161.44 27.0859 160.966 26.3115 160.628 25.3975C160.298 24.4834 160.133 23.4339 160.133 22.249C160.133 20.6748 160.412 19.3418 160.971 18.25C161.529 17.1582 162.325 16.3288 163.357 15.7617C164.39 15.1947 165.621 14.9111 167.052 14.9111C168.381 14.9111 169.557 15.1947 170.581 15.7617C171.614 16.3288 172.422 17.1582 173.006 18.25C173.598 19.3418 173.895 20.6748 173.895 22.249ZM164.081 22.249C164.081 23.18 164.183 23.9629 164.386 24.5977C164.589 25.2324 164.906 25.7106 165.338 26.0322C165.77 26.3538 166.332 26.5146 167.026 26.5146C167.712 26.5146 168.266 26.3538 168.689 26.0322C169.121 25.7106 169.434 25.2324 169.629 24.5977C169.832 23.9629 169.934 23.18 169.934 22.249C169.934 21.3096 169.832 20.5309 169.629 19.9131C169.434 19.2868 169.121 18.8171 168.689 18.5039C168.258 18.1908 167.695 18.0342 167.001 18.0342C165.977 18.0342 165.232 18.3854 164.767 19.0879C164.31 19.7904 164.081 20.8441 164.081 22.249ZM189.992 22.249C189.992 23.4339 189.831 24.4834 189.51 25.3975C189.197 26.3115 188.735 27.0859 188.126 27.7207C187.525 28.347 186.797 28.821 185.942 29.1426C185.096 29.4642 184.14 29.625 183.073 29.625C182.075 29.625 181.156 29.4642 180.318 29.1426C179.489 28.821 178.765 28.347 178.147 27.7207C177.538 27.0859 177.064 26.3115 176.726 25.3975C176.396 24.4834 176.23 23.4339 176.23 22.249C176.23 20.6748 176.51 19.3418 177.068 18.25C177.627 17.1582 178.423 16.3288 179.455 15.7617C180.488 15.1947 181.719 14.9111 183.149 14.9111C184.478 14.9111 185.655 15.1947 186.679 15.7617C187.711 16.3288 188.52 17.1582 189.104 18.25C189.696 19.3418 189.992 20.6748 189.992 22.249ZM180.179 22.249C180.179 23.18 180.28 23.9629 180.483 24.5977C180.687 25.2324 181.004 25.7106 181.436 26.0322C181.867 26.3538 182.43 26.5146 183.124 26.5146C183.81 26.5146 184.364 26.3538 184.787 26.0322C185.219 25.7106 185.532 25.2324 185.727 24.5977C185.93 23.9629 186.031 23.18 186.031 22.249C186.031 21.3096 185.93 20.5309 185.727 19.9131C185.532 19.2868 185.219 18.8171 184.787 18.5039C184.355 18.1908 183.793 18.0342 183.099 18.0342C182.075 18.0342 181.33 18.3854 180.864 19.0879C180.407 19.7904 180.179 20.8441 180.179 22.249ZM197.063 9.61719V18.4531C197.063 18.9863 197.042 19.5195 197 20.0527C196.958 20.5859 196.911 21.1191 196.86 21.6523H196.911C197.174 21.2799 197.44 20.9118 197.711 20.5479C197.99 20.1839 198.286 19.8327 198.6 19.4941L202.573 15.1777H206.94L201.304 21.335L207.283 29.3711H202.814L198.727 23.6201L197.063 24.9531V29.3711H193.191V9.61719H197.063ZM215.167 14.9111C216.479 14.9111 217.609 15.165 218.557 15.6729C219.505 16.1722 220.237 16.9001 220.753 17.8564C221.269 18.8128 221.527 19.9808 221.527 21.3604V23.2393H212.374C212.416 24.3311 212.742 25.1901 213.352 25.8164C213.969 26.4342 214.824 26.7432 215.916 26.7432C216.822 26.7432 217.651 26.6501 218.404 26.4639C219.158 26.2777 219.932 25.9984 220.728 25.626V28.6221C220.025 28.9691 219.289 29.223 218.519 29.3838C217.757 29.5446 216.83 29.625 215.738 29.625C214.316 29.625 213.055 29.3626 211.955 28.8379C210.863 28.3132 210.004 27.5133 209.378 26.4385C208.76 25.3636 208.451 24.0094 208.451 22.376C208.451 20.7171 208.73 19.3376 209.289 18.2373C209.856 17.1286 210.643 16.2992 211.65 15.749C212.658 15.1904 213.83 14.9111 215.167 14.9111ZM215.192 17.666C214.439 17.666 213.813 17.9072 213.313 18.3896C212.823 18.8721 212.539 19.6296 212.463 20.6621H217.896C217.888 20.0866 217.782 19.5745 217.579 19.126C217.384 18.6774 217.088 18.3219 216.69 18.0596C216.301 17.7972 215.802 17.666 215.192 17.666ZM229.17 29.625C227.587 29.625 226.297 29.0072 225.298 27.7715C224.308 26.5273 223.812 24.7035 223.812 22.2998C223.812 19.8708 224.316 18.0342 225.323 16.79C226.33 15.5374 227.646 14.9111 229.271 14.9111C229.949 14.9111 230.545 15.0042 231.062 15.1904C231.578 15.3766 232.022 15.6263 232.395 15.9395C232.775 16.2526 233.097 16.6038 233.359 16.9932H233.486C233.436 16.7223 233.372 16.3245 233.296 15.7998C233.228 15.2666 233.194 14.7207 233.194 14.1621V9.61719H237.079V29.3711H234.108L233.359 27.5303H233.194C232.949 27.9196 232.64 28.2751 232.268 28.5967C231.904 28.9098 231.468 29.1595 230.96 29.3457C230.452 29.5319 229.855 29.625 229.17 29.625ZM230.528 26.54C231.586 26.54 232.331 26.2269 232.763 25.6006C233.203 24.9658 233.436 24.0137 233.461 22.7441V22.3252C233.461 20.9456 233.249 19.8919 232.826 19.1641C232.403 18.4277 231.616 18.0596 230.465 18.0596C229.61 18.0596 228.941 18.4277 228.459 19.1641C227.977 19.9004 227.735 20.9626 227.735 22.3506C227.735 23.7386 227.977 24.7839 228.459 25.4863C228.95 26.1888 229.64 26.54 230.528 26.54ZM255.729 18.085H252.377V29.3711H248.505V18.085H246.372V16.2188L248.505 15.1777V14.1367C248.505 12.9264 248.708 11.987 249.114 11.3184C249.529 10.6413 250.109 10.1673 250.854 9.89648C251.607 9.61719 252.495 9.47754 253.52 9.47754C254.273 9.47754 254.958 9.54102 255.576 9.66797C256.194 9.78646 256.698 9.92188 257.087 10.0742L256.097 12.918C255.8 12.8249 255.479 12.7402 255.132 12.6641C254.785 12.5879 254.387 12.5498 253.938 12.5498C253.397 12.5498 252.999 12.7148 252.745 13.0449C252.5 13.3665 252.377 13.7812 252.377 14.2891V15.1777H255.729V18.085ZM270.861 22.249C270.861 23.4339 270.701 24.4834 270.379 25.3975C270.066 26.3115 269.604 27.0859 268.995 27.7207C268.394 28.347 267.666 28.821 266.812 29.1426C265.965 29.4642 265.009 29.625 263.942 29.625C262.944 29.625 262.025 29.4642 261.188 29.1426C260.358 28.821 259.634 28.347 259.017 27.7207C258.407 27.0859 257.933 26.3115 257.595 25.3975C257.265 24.4834 257.1 23.4339 257.1 22.249C257.1 20.6748 257.379 19.3418 257.938 18.25C258.496 17.1582 259.292 16.3288 260.324 15.7617C261.357 15.1947 262.588 14.9111 264.019 14.9111C265.347 14.9111 266.524 15.1947 267.548 15.7617C268.58 16.3288 269.389 17.1582 269.973 18.25C270.565 19.3418 270.861 20.6748 270.861 22.249ZM261.048 22.249C261.048 23.18 261.149 23.9629 261.353 24.5977C261.556 25.2324 261.873 25.7106 262.305 26.0322C262.736 26.3538 263.299 26.5146 263.993 26.5146C264.679 26.5146 265.233 26.3538 265.656 26.0322C266.088 25.7106 266.401 25.2324 266.596 24.5977C266.799 23.9629 266.9 23.18 266.9 22.249C266.9 21.3096 266.799 20.5309 266.596 19.9131C266.401 19.2868 266.088 18.8171 265.656 18.5039C265.225 18.1908 264.662 18.0342 263.968 18.0342C262.944 18.0342 262.199 18.3854 261.733 19.0879C261.276 19.7904 261.048 20.8441 261.048 22.249ZM281.982 14.9111C282.177 14.9111 282.401 14.9238 282.655 14.9492C282.918 14.9661 283.129 14.9915 283.29 15.0254L282.998 18.6562C282.871 18.6139 282.689 18.5843 282.452 18.5674C282.224 18.542 282.025 18.5293 281.855 18.5293C281.356 18.5293 280.869 18.5928 280.396 18.7197C279.93 18.8467 279.511 19.054 279.139 19.3418C278.766 19.6211 278.47 19.9935 278.25 20.459C278.038 20.916 277.933 21.4788 277.933 22.1475V29.3711H274.061V15.1777H276.993L277.564 17.5645H277.755C278.034 17.082 278.381 16.6419 278.796 16.2441C279.219 15.8379 279.697 15.5163 280.23 15.2793C280.772 15.0339 281.356 14.9111 281.982 14.9111ZM303.882 24.2168C303.882 25.3171 303.615 26.2734 303.082 27.0859C302.549 27.8984 301.77 28.5247 300.746 28.9648C299.73 29.4049 298.495 29.625 297.039 29.625C296.396 29.625 295.765 29.5827 295.147 29.498C294.538 29.4134 293.95 29.2907 293.383 29.1299C292.824 28.9606 292.291 28.7533 291.783 28.5078V24.8516C292.663 25.2409 293.577 25.5921 294.525 25.9053C295.473 26.2184 296.413 26.375 297.344 26.375C297.987 26.375 298.503 26.2904 298.893 26.1211C299.29 25.9518 299.578 25.7191 299.756 25.4229C299.934 25.1266 300.022 24.7881 300.022 24.4072C300.022 23.9417 299.866 23.5439 299.553 23.2139C299.24 22.8838 298.808 22.5749 298.258 22.2871C297.716 21.9993 297.103 21.6904 296.417 21.3604C295.985 21.1572 295.516 20.9118 295.008 20.624C294.5 20.3278 294.018 19.9681 293.561 19.5449C293.104 19.1217 292.727 18.6097 292.431 18.0088C292.143 17.3994 291.999 16.6715 291.999 15.8252C291.999 14.7165 292.253 13.7686 292.761 12.9814C293.269 12.1943 293.992 11.5934 294.932 11.1787C295.88 10.7555 296.997 10.5439 298.283 10.5439C299.248 10.5439 300.166 10.6582 301.038 10.8867C301.918 11.1068 302.837 11.4284 303.793 11.8516L302.523 14.9111C301.669 14.5641 300.903 14.2975 300.226 14.1113C299.549 13.9167 298.859 13.8193 298.156 13.8193C297.665 13.8193 297.246 13.8997 296.899 14.0605C296.552 14.2129 296.29 14.4329 296.112 14.7207C295.935 15 295.846 15.3258 295.846 15.6982C295.846 16.1383 295.973 16.5107 296.227 16.8154C296.489 17.1117 296.878 17.3994 297.395 17.6787C297.919 17.958 298.571 18.2839 299.35 18.6562C300.298 19.1048 301.106 19.5745 301.774 20.0654C302.451 20.5479 302.972 21.1191 303.336 21.7793C303.7 22.431 303.882 23.2435 303.882 24.2168ZM310.813 9.61719V13.6416C310.813 14.3441 310.788 15.0127 310.737 15.6475C310.695 16.2822 310.661 16.7308 310.636 16.9932H310.839C311.144 16.5023 311.503 16.1045 311.918 15.7998C312.341 15.4951 312.807 15.2708 313.314 15.127C313.822 14.9831 314.368 14.9111 314.952 14.9111C315.976 14.9111 316.869 15.0931 317.631 15.457C318.393 15.8125 318.985 16.3753 319.408 17.1455C319.831 17.9072 320.043 18.8975 320.043 20.1162V29.3711H316.171V21.0811C316.171 20.0654 315.985 19.2995 315.612 18.7832C315.24 18.2669 314.664 18.0088 313.886 18.0088C313.107 18.0088 312.493 18.1908 312.045 18.5547C311.596 18.9102 311.279 19.4391 311.093 20.1416C310.907 20.8356 310.813 21.6862 310.813 22.6934V29.3711H306.941V9.61719H310.813ZM327.901 15.1777V29.3711H324.029V15.1777H327.901ZM325.972 9.61719C326.547 9.61719 327.042 9.7526 327.457 10.0234C327.872 10.2858 328.079 10.7809 328.079 11.5088C328.079 12.2282 327.872 12.7275 327.457 13.0068C327.042 13.2777 326.547 13.4131 325.972 13.4131C325.388 13.4131 324.888 13.2777 324.474 13.0068C324.067 12.7275 323.864 12.2282 323.864 11.5088C323.864 10.7809 324.067 10.2858 324.474 10.0234C324.888 9.7526 325.388 9.61719 325.972 9.61719ZM339.873 14.9111C341.473 14.9111 342.763 15.5332 343.745 16.7773C344.735 18.0215 345.23 19.8454 345.23 22.249C345.23 23.8571 344.998 25.2113 344.532 26.3115C344.067 27.4033 343.424 28.2285 342.603 28.7871C341.782 29.3457 340.838 29.625 339.771 29.625C339.086 29.625 338.498 29.5404 338.007 29.3711C337.516 29.1934 337.097 28.9691 336.75 28.6982C336.403 28.4189 336.103 28.1227 335.849 27.8096H335.646C335.713 28.1481 335.764 28.4951 335.798 28.8506C335.832 29.2061 335.849 29.5531 335.849 29.8916V35.6172H331.977V15.1777H335.125L335.671 17.0186H335.849C336.103 16.6377 336.411 16.2865 336.775 15.9648C337.139 15.6432 337.575 15.3893 338.083 15.2031C338.599 15.0085 339.196 14.9111 339.873 14.9111ZM338.629 18.0088C337.952 18.0088 337.414 18.1484 337.017 18.4277C336.619 18.707 336.327 19.126 336.141 19.6846C335.963 20.2432 335.866 20.9499 335.849 21.8047V22.2236C335.849 23.1377 335.933 23.9121 336.103 24.5469C336.28 25.1816 336.572 25.6641 336.979 25.9941C337.393 26.3242 337.96 26.4893 338.68 26.4893C339.272 26.4893 339.759 26.3242 340.14 25.9941C340.521 25.6641 340.804 25.1816 340.99 24.5469C341.185 23.9036 341.282 23.1208 341.282 22.1982C341.282 20.8102 341.066 19.765 340.635 19.0625C340.203 18.36 339.535 18.0088 338.629 18.0088ZM347.173 23.9883V20.8145H353.99V23.9883H347.173ZM360.681 9.61719V14.2129C360.681 14.7461 360.664 15.2751 360.63 15.7998C360.604 16.3245 360.571 16.7308 360.528 17.0186H360.681C361.053 16.4346 361.561 15.9395 362.204 15.5332C362.847 15.1185 363.681 14.9111 364.705 14.9111C366.296 14.9111 367.587 15.5332 368.577 16.7773C369.567 18.0215 370.062 19.8454 370.062 22.249C370.062 23.8656 369.834 25.224 369.377 26.3242C368.92 27.416 368.281 28.2412 367.46 28.7998C366.639 29.3499 365.687 29.625 364.604 29.625C363.562 29.625 362.742 29.4388 362.141 29.0664C361.54 28.694 361.053 28.2751 360.681 27.8096H360.414L359.767 29.3711H356.809V9.61719H360.681ZM363.461 18.0088C362.784 18.0088 362.246 18.1484 361.849 18.4277C361.451 18.707 361.159 19.126 360.973 19.6846C360.795 20.2432 360.698 20.9499 360.681 21.8047V22.2236C360.681 23.6032 360.884 24.6611 361.29 25.3975C361.696 26.1253 362.437 26.4893 363.512 26.4893C364.307 26.4893 364.938 26.1211 365.403 25.3848C365.877 24.6484 366.114 23.5863 366.114 22.1982C366.114 20.8102 365.877 19.765 365.403 19.0625C364.929 18.36 364.282 18.0088 363.461 18.0088ZM371.23 15.1777H375.471L378.149 23.1631C378.234 23.417 378.306 23.6751 378.365 23.9375C378.424 24.1999 378.475 24.4707 378.518 24.75C378.56 25.0293 378.594 25.3213 378.619 25.626H378.695C378.746 25.1689 378.814 24.7415 378.898 24.3438C378.992 23.946 379.106 23.5524 379.241 23.1631L381.869 15.1777H386.021L380.016 31.1865C379.652 32.1683 379.178 32.985 378.594 33.6367C378.01 34.2969 377.337 34.792 376.575 35.1221C375.822 35.4521 374.993 35.6172 374.087 35.6172C373.647 35.6172 373.266 35.5918 372.944 35.541C372.623 35.4987 372.348 35.4521 372.119 35.4014V32.3291C372.297 32.3714 372.521 32.4095 372.792 32.4434C373.063 32.4772 373.346 32.4941 373.643 32.4941C374.184 32.4941 374.65 32.3799 375.039 32.1514C375.428 31.9229 375.754 31.6139 376.017 31.2246C376.279 30.8438 376.486 30.4248 376.639 29.9678L376.867 29.2695L371.23 15.1777ZM386.808 23.9883V20.8145H393.625V23.9883H386.808ZM412.147 19.9131C412.147 22.0036 411.745 23.7513 410.941 25.1562C410.146 26.5527 408.991 27.6064 407.476 28.3174C405.961 29.0199 404.137 29.3711 402.004 29.3711H396.748V10.8105H402.575C404.522 10.8105 406.21 11.1576 407.641 11.8516C409.071 12.5371 410.18 13.557 410.967 14.9111C411.754 16.2568 412.147 17.9242 412.147 19.9131ZM408.06 20.0146C408.06 18.6436 407.856 17.5179 407.45 16.6377C407.052 15.749 406.46 15.0931 405.673 14.6699C404.894 14.2467 403.929 14.0352 402.778 14.0352H400.684V26.1211H402.372C404.293 26.1211 405.719 25.609 406.65 24.585C407.59 23.5609 408.06 22.0374 408.06 20.0146ZM421.504 14.8857C423.408 14.8857 424.868 15.3005 425.884 16.1299C426.899 16.9593 427.407 18.2204 427.407 19.9131V29.3711H424.703L423.954 27.4414H423.853C423.446 27.9492 423.032 28.3639 422.608 28.6855C422.185 29.0072 421.699 29.2441 421.148 29.3965C420.598 29.5488 419.93 29.625 419.143 29.625C418.305 29.625 417.551 29.4642 416.883 29.1426C416.223 28.821 415.702 28.3301 415.321 27.6699C414.94 27.0013 414.75 26.1549 414.75 25.1309C414.75 23.6243 415.279 22.5156 416.337 21.8047C417.395 21.0853 418.982 20.6875 421.098 20.6113L423.561 20.5352V19.9131C423.561 19.1683 423.366 18.6224 422.977 18.2754C422.587 17.9284 422.046 17.7549 421.352 17.7549C420.666 17.7549 419.993 17.8522 419.333 18.0469C418.673 18.2415 418.013 18.487 417.353 18.7832L416.07 16.168C416.824 15.7702 417.666 15.457 418.597 15.2285C419.536 15 420.505 14.8857 421.504 14.8857ZM423.561 22.7949L422.062 22.8457C420.81 22.8796 419.938 23.1038 419.447 23.5186C418.965 23.9333 418.724 24.4792 418.724 25.1562C418.724 25.7487 418.897 26.1719 419.244 26.4258C419.591 26.6712 420.044 26.7939 420.603 26.7939C421.432 26.7939 422.13 26.5485 422.697 26.0576C423.273 25.5667 423.561 24.8685 423.561 23.9629V22.7949ZM437.386 26.54C437.809 26.54 438.219 26.4977 438.617 26.4131C439.023 26.3285 439.425 26.2227 439.823 26.0957V28.9775C439.409 29.1637 438.892 29.3161 438.274 29.4346C437.665 29.5615 436.996 29.625 436.269 29.625C435.422 29.625 434.66 29.4896 433.983 29.2188C433.315 28.9395 432.786 28.4613 432.396 27.7842C432.016 27.0986 431.825 26.1465 431.825 24.9277V18.085H429.972V16.4473L432.104 15.1523L433.222 12.1562H435.697V15.1777H439.671V18.085H435.697V24.9277C435.697 25.4694 435.85 25.8757 436.154 26.1465C436.467 26.4089 436.878 26.54 437.386 26.54ZM448.558 14.9111C449.869 14.9111 450.999 15.165 451.947 15.6729C452.895 16.1722 453.627 16.9001 454.144 17.8564C454.66 18.8128 454.918 19.9808 454.918 21.3604V23.2393H445.765C445.807 24.3311 446.133 25.1901 446.742 25.8164C447.36 26.4342 448.215 26.7432 449.307 26.7432C450.212 26.7432 451.042 26.6501 451.795 26.4639C452.548 26.2777 453.323 25.9984 454.118 25.626V28.6221C453.416 28.9691 452.679 29.223 451.909 29.3838C451.147 29.5446 450.221 29.625 449.129 29.625C447.707 29.625 446.446 29.3626 445.346 28.8379C444.254 28.3132 443.395 27.5133 442.769 26.4385C442.151 25.3636 441.842 24.0094 441.842 22.376C441.842 20.7171 442.121 19.3376 442.68 18.2373C443.247 17.1286 444.034 16.2992 445.041 15.749C446.048 15.1904 447.22 14.9111 448.558 14.9111ZM448.583 17.666C447.83 17.666 447.203 17.9072 446.704 18.3896C446.213 18.8721 445.93 19.6296 445.854 20.6621H451.287C451.279 20.0866 451.173 19.5745 450.97 19.126C450.775 18.6774 450.479 18.3219 450.081 18.0596C449.692 17.7972 449.192 17.666 448.583 17.666Z" fill="#767676"/>
</g>
<defs>
<filter id="filter0_d_3530_1146" x="0.398438" y="0.40625" width="458.52" height="43.2109" filterUnits="userSpaceOnUse" color-interpolation-filters="sRGB">
<feFlood flood-opacity="0" result="BackgroundImageFix"/>
<feColorMatrix in="SourceAlpha" type="matrix" values="0 0 0 0 0 0 0 0 0 0 0 0 0 0 0 0 0 0 127 0" result="hardAlpha"/>
<feOffset dy="4"/>
<feGaussianBlur stdDeviation="2"/>
<feComposite in2="hardAlpha" operator="out"/>
<feColorMatrix type="matrix" values="0 0 0 0 0 0 0 0 0 0 0 0 0 0 0 0 0 0 0.25 0"/>
<feBlend mode="normal" in2="BackgroundImageFix" result="effect1_dropShadow_3530_1146"/>
<feBlend mode="normal" in="SourceGraphic" in2="effect1_dropShadow_3530_1146" result="shape"/>
</filter>
</defs>
</svg>
