<svg width="67" height="63" viewBox="0 0 67 63" fill="none" xmlns="http://www.w3.org/2000/svg">
<g filter="url(#filter0_d_3885_11225)">
<path d="M31.9045 55L47.4522 27.4313L63 55H31.9045ZM47.4522 52.25C47.8143 52.25 48.1312 52.1125 48.4028 51.8375C48.6743 51.5625 48.8101 51.2417 48.8101 50.875C48.8101 50.5083 48.6743 50.1875 48.4028 49.9125C48.1312 49.6375 47.8143 49.5 47.4522 49.5C47.0901 49.5 46.7733 49.6375 46.5017 49.9125C46.2301 50.1875 46.0944 50.5083 46.0944 50.875C46.0944 51.2417 46.2301 51.5625 46.5017 51.8375C46.7733 52.1125 47.0901 52.25 47.4522 52.25ZM46.0944 46.75H48.8101V35.75H46.0944V46.75ZM4 55V38.5H9.43153V49.5H20.2946V55H4ZM4 16.5V0H20.2946V5.5H9.43153V16.5H4ZM28.4419 46.475C24.2777 45.8333 20.7246 44.0229 17.7825 41.0437C14.8404 38.0646 13.0526 34.4667 12.4189 30.25H17.8504C18.3936 32.9542 19.6274 35.2798 21.552 37.2267C23.4766 39.1737 25.7732 40.4232 28.4419 40.975V46.475ZM12.4189 24.75C13.0526 20.5333 14.8404 16.9244 17.7825 13.9233C20.7246 10.9221 24.2777 9.12267 28.4419 8.525V14.025C25.7714 14.575 23.4748 15.8244 21.552 17.7733C19.6292 19.7221 18.3954 22.0477 17.8504 24.75H12.4189ZM31.1577 33C29.664 33 28.3858 32.4619 27.323 31.3857C26.2602 30.3096 25.7279 29.0143 25.7261 27.5C25.7261 25.9417 26.2584 24.6354 27.323 23.5812C28.3876 22.5271 29.6658 22 31.1577 22C32.6966 22 33.9866 22.5271 35.0276 23.5812C36.0687 24.6354 36.5892 25.9417 36.5892 27.5C36.5892 29.0125 36.0687 30.3078 35.0276 31.3857C33.9866 32.4637 32.6966 33.0018 31.1577 33ZM44.4649 24.75C43.9217 22.0458 42.6888 19.7203 40.766 17.7733C38.8433 15.8263 36.5457 14.5768 33.8734 14.025V8.525C38.0376 9.16667 41.6025 10.9771 44.5681 13.9562C47.5337 16.9354 49.3098 20.5333 49.8964 24.75H44.4649ZM52.8838 16.5V5.5H42.0207V0H58.3153V16.5H52.8838Z" fill="#FF0000"/>
</g>
<defs>
<filter id="filter0_d_3885_11225" x="0" y="0" width="67" height="63" filterUnits="userSpaceOnUse" color-interpolation-filters="sRGB">
<feFlood flood-opacity="0" result="BackgroundImageFix"/>
<feColorMatrix in="SourceAlpha" type="matrix" values="0 0 0 0 0 0 0 0 0 0 0 0 0 0 0 0 0 0 127 0" result="hardAlpha"/>
<feOffset dy="4"/>
<feGaussianBlur stdDeviation="2"/>
<feComposite in2="hardAlpha" operator="out"/>
<feColorMatrix type="matrix" values="0 0 0 0 0 0 0 0 0 0 0 0 0 0 0 0 0 0 0.25 0"/>
<feBlend mode="normal" in2="BackgroundImageFix" result="effect1_dropShadow_3885_11225"/>
<feBlend mode="normal" in="SourceGraphic" in2="effect1_dropShadow_3885_11225" result="shape"/>
</filter>
</defs>
</svg>
